# xmcd
#
# Track frame offsets: 
#        150
#        14765
#        30726
#        44394
#        57818
#        73629
#        89532
#        102106
#        116916
#        131311
#        145228
#        160622
#        174733
#        188309
#        203110
#        217866
#
# Disc length: 3079 seconds
#
# Revision: 1
# Processed by: cddbd v1.5PL3 Copyright (c) Steve Scherf et al.
# Submitted via: ExactAudioCopy v0.95a4
#
DISCID=da0c0510
DTITLE=Billie's Blues - Billie's Blues
DYEAR=1900
DGENRE=
TTITLE0=Trav'lin Light
TTITLE1=Do Nothing 'Till You Hear From Me
TTITLE2=My Old Flame
TTITLE3=I'll Get By
TTITLE4=I Cover The Waterfront
TTITLE5=I'll Be Seeing You
TTITLE6=No More
TTITLE7=Embraceable You
TTITLE8=As Times Go By
TTITLE9=He's Funny That Way
TTITLE10=Lover Come Back To Me
TTITLE11=Billie's Blues
TTITLE12=On The Sunny Side Of The Street
TTITLE13=Lover Man
TTITLE14=I'm Yours
TTITLE15=That Old Devil Called Love
EXTD=
EXTT0=
EXTT1=
EXTT2=
EXTT3=
EXTT4=
EXTT5=
EXTT6=
EXTT7=
EXTT8=
EXTT9=
EXTT10=
EXTT11=
EXTT12=
EXTT13=
EXTT14=
EXTT15=
PLAYORDER=
